Coordinates
version=1
nRows=26
nColumns=24
inDegrees=yes

Units are S.I. units (second, meters, Newtons, ...)
Angles are in degrees.

endheader
time	pelvis_tilt	pelvis_list	pelvis_rotation	pelvis_tx	pelvis_ty	pelvis_tz	hip_flexion_r	hip_adduction_r	hip_rotation_r	knee_angle_r	ankle_angle_r	subtalar_angle_r	mtp_angle_r	hip_flexion_l	hip_adduction_l	hip_rotation_l	knee_angle_l	ankle_angle_l	subtalar_angle_l	mtp_angle_l	lumbar_extension	lumbar_bending	lumbar_rotation
      3.71000000	     -3.49185201	      0.03219831	      2.64579364	     -1.83370778	     -0.02536974	     -0.31088082	     27.06361492	      1.17083134	    -13.53565556	     -6.28703662	     -2.38818347	      7.97893993	     25.54220608	    -15.09398783	      2.83153168	     -5.41904771	    -13.23917940	      7.27578368	      6.66843989	     24.18857185	     -2.32058910	      0.11835221	     -8.45173607
      3.71500000	     -3.48353624	     -0.08979583	      2.74709342	     -1.82548543	     -0.02608249	     -0.31085083	     27.14190388	      1.37185183	    -12.74015940	     -7.42574975	     -2.00642052	      6.56571128	     22.70754648	    -15.15562860	      2.48833834	     -5.70740086	    -13.98184296	      6.39406557	      7.21502057	     26.19308645	     -2.15893587	      0.30741934	     -8.54000309
      3.72000000	     -3.54606302	     -0.12143039	      2.75357763	     -1.81725409	     -0.02691818	     -0.31070754	     27.27994579	      1.53501108	    -11.78620609	     -8.45043550	     -2.23807717	      4.92186646	     21.86743698	    -15.10328498	      2.26418881	     -6.01397076	    -14.85202094	      5.67700838	      7.86383686	     26.81343786	     -1.93140465	      0.39711857	     -8.50353980
      3.72500000	     -3.59127139	     -0.20524543	      2.74994792	     -1.80891550	     -0.02767170	     -0.31045743	     27.35299872	      1.78340013	    -10.77957610	     -9.41953162	     -2.52484962	      3.31374319	     20.40292411	    -15.03318075	      1.95122683	     -6.47982053	    -15.74917621	      4.76401719	      8.59042386	     28.11610339	     -1.70527369	      0.53439596	     -8.44920957
      3.73000000	     -3.59894159	     -0.42000485	      2.84599892	     -1.80051513	     -0.02824053	     -0.31032877	     27.34217209	      2.11800056	    -10.05175871	    -10.35484472	     -2.62017732	      2.13952030	     17.61923879	    -14.94981161	      1.45301804	     -6.92881175	    -16.64258322	      3.48616421	      9.15630469	     30.97712768	     -1.50722407	      0.81559799	     -8.49963660
      3.73500000	     -3.70909768	     -0.59847589	      2.79448951	     -1.79211063	     -0.02889431	     -0.31001493	     27.40989155	      2.48180759	     -9.23921578	    -11.07270604	     -3.45026526	      0.77519220	     17.06802666	    -14.68405858	      1.01403692	     -7.54721946	    -17.76481111	      2.53089836	      9.99228493	     31.56495586	     -1.20690643	      1.05491024	     -8.36750964
      3.74000000	     -3.68492023	     -0.81864034	      2.77181430	     -1.78386466	     -0.02924871	     -0.30955221	     27.29080159	      2.89997517	     -8.40864821	    -11.69304972	     -4.20925549	     -0.45989372	     15.61263330	    -14.52221443	      0.46524395	     -8.24002628	    -18.79898673	      0.99390329	     10.73178899	     34.54050447	     -1.07860653	      1.31610481	     -8.29677429
      3.74500000	     -3.79155898	     -1.11662181	      2.62938423	     -1.77556334	     -0.02962956	     -0.30901800	     27.28528833	      3.42800304	     -7.59869170	    -12.15947647	     -5.34976530	     -1.64890403	     15.17978442	    -14.12724813	     -0.15688269	     -9.14035020	    -20.09002236	     -0.26226397	     11.64012973	     35.47956924	     -0.80320020	      1.67389709	     -8.08421306
      3.75000000	     -3.80938424	     -1.51563145	      2.55990471	     -1.76720689	     -0.02970023	     -0.30846622	     27.12313929	      4.03049994	     -6.95146450	    -12.49475639	     -6.47356108	     -2.75936274	     14.61686618	    -13.81802094	     -0.94787145	     -9.99119536	    -21.23429531	     -2.17234181	     12.34092733	     38.77284850	     -0.61304697	      2.12538808	     -7.91124398
      3.75500000	     -3.88674522	     -1.90348034	      2.34730872	     -1.75897503	     -0.02972860	     -0.30770070	     27.02450097	      4.69092895	     -6.03766205	    -12.78057919	     -7.74702368	     -4.01637586	     14.37139268	    -13.36059636	     -1.72288312	    -10.96041853	    -22.60997560	     -3.87361981	     13.16091681	     39.96674278	     -0.38767551	      2.55980045	     -7.59634544
      3.76000000	     -3.90458395	     -2.37160390	      2.24801325	     -1.75082127	     -0.02954973	     -0.30699224	     26.86424519	      5.36999137	     -5.41271858	    -13.06779011	     -8.89483974	     -5.13981700	     14.13044951	    -12.91954739	     -2.65786340	    -11.85032948	    -23.91220111	     -6.08683964	     13.85750538	     43.13711103	     -0.23655869	      3.06606714	     -7.38341671
      3.76500000	     -3.95497648	     -2.83683866	      2.08039857	     -1.74271812	     -0.02932134	     -0.30620148	     26.75369447	      6.08325580	     -4.59590225	    -13.41241793	     -9.91080508	     -6.37025731	     13.63174451	    -12.39677301	     -3.58753672	    -12.69753203	    -25.31324964	     -8.32476688	     14.49681992	     45.18287671	     -0.06721944	      3.56912169	     -7.09557342
      3.77000000	     -4.06169491	     -3.24036119	      1.91578911	     -1.73479978	     -0.02909227	     -0.30536465	     26.74915713	      6.73715189	     -3.71070765	    -13.86380744	    -10.82189539	     -7.73381947	     13.10072050	    -11.72657618	     -4.46819718	    -13.40706188	    -26.86486881	    -10.51918261	     15.13431791	     45.98860546	      0.12564083	      3.99300168	     -6.83246951
      3.77500000	     -4.09103799	     -3.76305967	      1.79739197	     -1.72669030	     -0.02875569	     -0.30465649	     26.66713508	      7.49368813	     -2.95547765	    -14.43927446	    -11.11122474	     -8.84552818	     11.22067969	    -11.18017529	     -5.48410911	    -14.00230393	    -28.19662784	    -13.29111619	     15.41610950	     48.76426180	      0.27080998	      4.55674739	     -6.56585455
      3.78000000	     -4.16976241	     -4.19888687	      1.67842421	     -1.71877113	     -0.02848171	     -0.30390115	     26.69676574	      8.18172282	     -2.11674475	    -15.17519735	    -11.09083663	    -10.02789651	      8.62658915	    -10.49889369	     -6.40555356	    -14.42723377	    -29.67306945	    -15.94349930	     15.66562084	     50.09003614	      0.43097165	      5.01189632	     -6.32471920
      3.78500000	     -4.35131070	     -4.60828965	      1.49031114	     -1.71080799	     -0.02842495	     -0.30315281	     26.86462217	      8.86315156	     -1.28777931	    -15.98977044	    -11.03987066	    -11.23068216	      6.68042576	     -9.68225144	     -7.28632209	    -14.82231595	    -31.23200528	    -18.46710599	     15.90486285	     50.52193133	      0.70067221	      5.45230107	     -5.99174693
      3.79000000	     -4.41649882	     -4.93051548	      1.50556451	     -1.70313772	     -0.02820616	     -0.30260273	     26.95543318	      9.39875868	     -0.59017203	    -16.97261969	    -10.16437105	    -12.16228946	      2.40968755	     -8.89674055	     -8.06263256	    -14.78774296	    -32.75273240	    -21.21313525	     15.78047108	     51.23079456	      0.81460134	      5.77686128	     -5.85991960
      3.79500000	     -4.55159216	     -5.24406216	      1.52947319	     -1.69539553	     -0.02817727	     -0.30216859	     27.10592344	      9.91082498	      0.06518033	    -17.93803725	     -9.28014297	    -13.03612610	     -1.11354590	     -7.97935892	     -8.81713339	    -14.68001635	    -34.39868334	    -23.66549833	     15.63861845	     50.77053109	      1.02017104	      6.09994005	     -5.80941967
      3.80000000	     -4.69722096	     -5.49396497	      1.56864097	     -1.68774250	     -0.02823215	     -0.30180756	     27.26289855	     10.34798622	      0.63354997	    -18.89134953	     -8.38593811	    -13.84712109	     -4.14555939	     -7.00543866	     -9.47803012	    -14.48591257	    -36.05569476	    -26.08191846	     15.27243578	     50.18166318	      1.22347451	      6.35555623	     -5.69459860
      3.80500000	     -4.90247125	     -5.75321295	      1.62502997	     -1.68006097	     -0.02844735	     -0.30155020	     27.43244782	     10.77009510	      1.13474024	    -19.72035996	     -7.83927915	    -14.74091227	     -5.57454712	     -5.91298070	    -10.13637297	    -14.25235282	    -37.78200474	    -28.30309056	     14.75315575	     49.30373902	      1.50515828	      6.62662832	     -5.64291173
      3.81000000	     -5.05721771	     -5.91050571	      1.72692099	     -1.67257603	     -0.02859912	     -0.30138686	     27.53674912	     11.06268670	      1.55543547	    -20.56386321	     -6.86269091	    -15.26624114	     -7.68271118	     -4.80698688	    -10.64766524	    -13.90641401	    -39.54190691	    -30.33870615	     14.02040768	     47.73853696	      1.70696324	      6.78220678	     -5.61462461
      3.81500000	     -5.10812041	     -6.06851722	      1.84012040	     -1.66516125	     -0.02863728	     -0.30127957	     27.46196431	     11.34201384	      1.90137324	    -21.28064388	     -5.89594708	    -15.66559598	     -9.37234354	     -3.79074738	    -11.14043910	    -13.56039445	    -41.27761090	    -32.19846755	     13.14253737	     46.08173889	      1.79284357	      6.94283838	     -5.57327322
      3.82000000	     -5.15640167	     -6.22809573	      1.94677831	     -1.65782162	     -0.02864350	     -0.30120051	     27.32278418	     11.59763388	      2.13732774	    -21.86614027	     -5.03674118	    -15.93945013	    -10.31016655	     -2.74647028	    -11.61805311	    -13.23302973	    -43.01076428	    -33.82372148	     12.11409441	     44.42562785	      1.86836915	      7.10441840	     -5.51263646
      3.82500000	     -5.19750069	     -6.40063274	      2.03876312	     -1.65057323	     -0.02857632	     -0.30111967	     27.11018955	     11.84473085	      2.27244171	    -22.31499307	     -4.21591133	    -16.06084872	    -10.84898903	     -1.67979780	    -12.09568065	    -12.92895418	    -44.75226620	    -35.09540557	     10.99534631	     42.55216263	      1.92748310	      7.27843378	     -5.42203619
      3.83000000	     -5.22653606	     -6.58680651	      2.11313514	     -1.64342287	     -0.02839836	     -0.30102694	     26.81809595	     12.08159777	      2.29854920	    -22.62234046	     -3.43600190	    -16.01575494	    -11.00727110	     -0.60633431	    -12.57315840	    -12.64696834	    -46.47727381	    -35.98686468	      9.80319649	     40.61629232	      1.96336559	      7.46510304	     -5.30239626
      3.83500000	     -5.23995670	     -6.79199254	      2.16802740	     -1.63636073	     -0.02807249	     -0.30090893	     26.44086359	     12.31427455	      2.20511145	    -22.77829638	     -2.73536593	    -15.83231125	    -10.78327936	      0.46089573	    -13.05782248	    -12.38502215	    -48.16699210	    -36.46507437	      8.57415087	     38.65836782	      1.97175803	      7.66978662	     -5.12863895
